<svg xmlns="http://www.w3.org/2000/svg" xmlnsXlink="http://www.w3.org/1999/xlink" viewBox="0 0 492 492" width="300" height="300"><g width="100%" height="100%" transform="matrix(1,0,0,1,0,0)"><g id="Master_Layer_2"></g><g id="Layer_1"><g><g><g><path clip-rule="evenodd" d="m246.26 431.06c-24.881 0-49.02-4.874-71.747-14.487-21.949-9.284-41.661-22.573-58.587-39.5-16.926-16.925-30.216-36.637-39.499-58.586-9.613-22.727-14.487-46.866-14.487-71.747s4.874-49.02 14.486-71.747c9.284-21.949 22.573-41.661 39.5-58.587s36.638-30.216 58.587-39.5c22.727-9.612 46.865-14.486 71.747-14.486 24.881 0 49.02 4.874 71.747 14.486 21.949 9.284 41.66 22.573 58.587 39.5 16.926 16.926 30.216 36.638 39.5 58.587 9.612 22.727 14.486 46.865 14.486 71.747s-4.874 49.02-14.486 71.747c-9.284 21.949-22.573 41.66-39.5 58.587-16.926 16.927-36.638 30.216-58.587 39.5-22.727 9.612-46.866 14.486-71.747 14.486z" fill="#bcff2f" fill-rule="evenodd" fill-opacity="1" data-original-color="#000000ff" stroke="none" stroke-opacity="1"></path></g></g></g></g></g></svg>